<?xml version="1.0" standalone="no"?>
<!DOCTYPE svg PUBLIC "-//W3C//DTD SVG 20010904//EN"
 "http://www.w3.org/TR/2001/REC-SVG-20010904/DTD/svg10.dtd">
<svg version="1.0" xmlns="http://www.w3.org/2000/svg"
 width="500.000000pt" height="500.000000pt" viewBox="0 0 500.000000 500.000000"
 preserveAspectRatio="xMidYMid meet">
<metadata>
Created by potrace 1.14, written by Peter Selinger 2001-2017
</metadata>
<g transform="translate(0.000000,500.000000) scale(0.100000,-0.100000)"
fill="#000000" stroke="none">
<path d="M2245 4415 c-337 -48 -657 -182 -918 -382 -85 -66 -238 -214 -311
-302 -314 -377 -479 -894 -438 -1373 23 -266 85 -489 198 -717 396 -797 1269
-1214 2149 -1027 565 120 1073 527 1327 1064 355 751 186 1649 -418 2221 -304
288 -661 459 -1079 517 -123 16 -388 16 -510 -1z m412 -632 c42 -19 58 -53 73
-148 l11 -70 62 -18 c34 -10 105 -38 158 -64 l96 -45 64 46 c112 82 150 74
282 -63 95 -99 110 -135 81 -196 -15 -33 -19 -35 -66 -35 -50 0 -50 0 -36 23
44 67 44 62 9 106 -39 49 -141 141 -156 141 -6 0 -45 -25 -87 -55 -42 -30 -83
-55 -91 -55 -9 0 -43 16 -77 36 -59 36 -238 104 -271 104 -28 0 -39 24 -55
116 -8 49 -21 95 -29 103 -20 20 -230 20 -251 0 -8 -8 -21 -54 -28 -102 -8
-47 -17 -90 -20 -95 -3 -5 -57 -26 -119 -46 -63 -20 -144 -55 -182 -76 -37
-22 -74 -40 -82 -40 -8 0 -49 25 -91 55 -42 30 -81 55 -87 55 -15 0 -117 -92
-156 -141 -35 -44 -35 -39 9 -106 14 -23 14 -23 -36 -23 -47 0 -51 2 -67 36
-29 61 -15 94 81 194 133 138 170 146 283 64 l64 -46 96 45 c53 26 124 54 158
64 l62 18 11 70 c23 148 46 164 228 165 95 0 132 -4 159 -17z m58 -427 c70
-19 246 -104 290 -141 l30 -25 -70 0 c-45 0 -78 5 -91 14 -11 8 -49 26 -85 40
-190 75 -388 75 -578 0 -36 -14 -74 -32 -85 -40 -13 -9 -46 -14 -91 -14 l-70
0 30 25 c75 61 246 134 375 159 52 10 286 -2 345 -18z m-90 -155 c27 -6 -13
-9 -125 -9 -96 1 -150 4 -130 8 49 10 207 11 255 1z m1289 -107 c21 -8 21 -30
0 -38 -20 -8 -2808 -8 -2828 0 -19 7 -21 30 -3 37 18 8 2812 8 2831 1z m-2418
-256 l74 -62 0 -73 0 -73 -100 0 -99 0 -12 40 -12 40 -82 0 c-88 0 -105 -8
-105 -51 0 -34 22 -43 160 -64 125 -19 137 -23 206 -78 l54 -42 0 -112 0 -112
-77 -65 -78 -66 -165 0 -166 0 -76 63 -77 62 0 73 -1 72 100 0 99 0 11 -40 11
-40 80 0 c44 0 89 5 100 10 22 12 26 62 6 78 -7 6 -74 21 -148 33 l-134 23
-62 50 -63 51 0 111 0 111 73 61 72 61 169 1 168 0 74 -62z m817 -4 l77 -65 0
-70 0 -69 -104 0 -104 0 -9 38 -9 37 -74 3 c-123 5 -120 10 -120 -193 0 -211
-2 -207 116 -203 l78 3 9 38 9 37 104 0 104 0 0 -68 0 -69 -80 -66 -79 -67
-153 0 -153 0 -87 73 -87 72 0 246 -1 247 83 70 82 71 161 0 161 1 76 -66z
m801 4 l76 -63 0 -73 0 -73 -102 3 -103 3 -9 38 -10 37 -81 0 c-89 0 -105 -8
-105 -52 0 -36 11 -40 160 -63 129 -20 132 -21 206 -79 l54 -41 0 -112 0 -111
-80 -66 -79 -66 -166 0 -166 0 -80 67 -79 68 0 67 0 68 104 0 104 0 9 -37 9
-38 83 -3 c95 -3 111 5 111 54 0 39 -6 41 -180 69 -103 17 -106 18 -172 72
l-68 55 0 104 0 103 78 65 77 66 166 0 167 0 76 -62z m936 -73 l0 -136 -82 3
-83 3 -9 38 -10 37 -98 0 -98 0 0 -65 0 -65 95 0 95 0 0 -65 0 -65 -95 0 -95
0 0 -70 0 -70 99 0 99 0 9 38 9 37 82 3 82 3 0 -136 0 -135 -345 0 -345 0 0
84 0 84 45 11 45 11 0 200 0 200 -45 11 -45 11 0 84 0 84 345 0 345 0 0 -135z
m-1915 -759 c12 -9 16 -19 11 -31 -5 -14 -9 -16 -18 -7 -18 18 -56 14 -78 -8
-24 -24 -26 -67 -3 -92 18 -20 63 -24 80 -7 7 7 20 8 30 5 16 -7 15 -10 -10
-32 -65 -56 -157 -5 -157 87 0 22 10 41 34 65 37 37 78 44 111 20z m213 -74
l3 -82 39 0 c33 0 40 -3 40 -20 0 -18 -7 -20 -60 -20 l-60 0 0 106 c0 95 2
105 18 102 14 -3 17 -16 20 -86z m252 22 c0 -72 12 -104 38 -104 33 0 42 22
42 97 0 66 2 73 20 73 18 0 20 -7 20 -80 0 -73 -3 -83 -25 -105 -24 -24 -57
-31 -90 -19 -28 11 -45 60 -45 134 0 63 2 70 20 70 18 0 20 -7 20 -66z m378
50 c17 -11 23 -25 22 -52 0 -20 3 -53 6 -73 8 -49 -20 -69 -93 -69 l-53 0 0
105 0 105 48 0 c27 0 57 -7 70 -16z m-1130 -106 c3 -17 -21 -18 -387 -18 -319
0 -391 2 -391 13 0 8 3 17 7 20 4 4 178 6 387 5 353 -3 381 -4 384 -20z m2080
0 c3 -17 -20 -18 -382 -18 -246 0 -387 4 -391 10 -17 28 16 30 388 28 354 -3
382 -4 385 -20z m-1598 -228 c0 -113 -40 -140 -205 -140 l-116 0 -38 -40 c-31
-33 -45 -40 -75 -40 -75 0 -126 50 -126 126 0 28 8 44 34 70 29 29 41 34 82
34 52 0 83 -18 103 -57 11 -22 18 -23 119 -23 128 0 142 7 149 73 5 46 7 47
39 47 l34 0 0 -50z m200 -134 c0 -175 1 -185 20 -191 33 -10 60 -54 60 -97 0
-73 -44 -118 -115 -118 -74 0 -115 43 -115 121 0 36 6 47 40 79 l40 37 0 176
0 177 35 0 35 0 0 -184z m203 137 c3 -29 12 -52 23 -60 21 -15 234 -19 234 -4
0 5 14 23 31 40 26 26 38 31 80 31 64 0 108 -36 116 -96 10 -77 -43 -134 -123
-134 -30 0 -44 7 -75 40 l-38 40 -116 0 c-165 0 -205 27 -205 140 l0 50 34 0
c32 0 34 -1 39 -47z"/>
<path d="M2900 1960 c0 -16 7 -20 35 -20 28 0 35 4 35 20 0 16 -7 20 -35 20
-28 0 -35 -4 -35 -20z"/>
<path d="M2900 1875 c0 -24 3 -26 38 -23 29 2 37 7 37 23 0 16 -8 21 -37 23
-35 3 -38 1 -38 -23z"/>
<path d="M1856 1589 c-17 -24 -12 -45 14 -59 25 -14 49 -2 56 26 12 48 -41 73
-70 33z"/>
<path d="M2470 1272 c-16 -13 -21 -24 -16 -40 13 -38 69 -40 81 -1 13 40 -32
68 -65 41z"/>
<path d="M3070 1595 c-15 -18 -6 -61 16 -69 18 -7 49 8 57 28 8 19 -20 56 -42
56 -10 0 -24 -7 -31 -15z"/>
</g>
</svg>
